HIERARCHY
ROOT Hips
{
 OFFSET 0.000000 0.000000 0.000000
 CHANNELS 6 Xposition Yposition Zposition Yrotation Xrotation Zrotation
 JOINT Chest
 {
  OFFSET 0.000000 9.585900 0.002600
  CHANNELS 3 Yrotation Xrotation Zrotation
  JOINT Chest2
  {
   OFFSET 0.000000 9.601200 -0.005300
   CHANNELS 3 Yrotation Xrotation Zrotation
   JOINT Chest3
   {
    OFFSET 0.000000 9.561800 0.000000
    CHANNELS 3 Yrotation Xrotation Zrotation
    JOINT Chest4
    {
     OFFSET 0.000000 9.552100 0.000000
     CHANNELS 3 Yrotation Xrotation Zrotation
     JOINT Neck
     {
      OFFSET 0.000000 14.453000 0.000000
      CHANNELS 3 Yrotation Xrotation Zrotation
      JOINT Head
      {
       OFFSET 0.000000 8.936500 -0.011300
       CHANNELS 3 Yrotation Xrotation Zrotation
       End Site
       {
        OFFSET 0.000000 17.073600 -0.006000
       }
      }
     }
     JOINT RightCollar
     {
      OFFSET -2.921100 9.558500 0.000000
      CHANNELS 3 Yrotation Xrotation Zrotation
      JOINT RightShoulder
      {
       OFFSET -13.519700 0.000000 0.000000
       CHANNELS 3 Yrotation Xrotation Zrotation
       JOINT RightElbow
       {
        OFFSET 0.000000 -29.696600 0.000000
        CHANNELS 3 Yrotation Xrotation Zrotation
        JOINT RightWrist
        {
         OFFSET 0.000000 -24.004700 0.000000
         CHANNELS 3 Yrotation Xrotation Zrotation
         End Site
         {
          OFFSET 0.000000 -17.728500 0.000000
         }
        }
       }
      }
     }
     JOINT LeftCollar
     {
      OFFSET 2.921100 9.558500 0.000000
      CHANNELS 3 Yrotation Xrotation Zrotation
      JOINT LeftShoulder
      {
       OFFSET 13.519700 0.000000 0.000000
       CHANNELS 3 Yrotation Xrotation Zrotation
       JOINT LeftElbow
       {
        OFFSET 0.000000 -29.696600 0.000000
        CHANNELS 3 Yrotation Xrotation Zrotation
        JOINT LeftWrist
        {
         OFFSET 0.000000 -24.004700 0.000000
         CHANNELS 3 Yrotation Xrotation Zrotation
         End Site
         {
          OFFSET 0.000000 -17.728500 0.000000
         }
        }
       }
      }
     }
    }
   }
  }
 }
 JOINT RightHip
 {
  OFFSET -7.771700 -0.012900 -0.001300
  CHANNELS 3 Yrotation Xrotation Zrotation
  JOINT RightKnee
  {
   OFFSET 0.000000 -40.869800 0.001200
   CHANNELS 3 Yrotation Xrotation Zrotation
   JOINT RightAnkle
   {
    OFFSET 0.000000 -39.717900 0.002100
    CHANNELS 3 Yrotation Xrotation Zrotation
    JOINT RightToe
    {
     OFFSET 0.000000 -4.965400 11.033500
     CHANNELS 3 Yrotation Xrotation Zrotation
     End Site
     {
      OFFSET 0.000000 -1.423100 5.872300
     }
    }
   }
  }
 }
 JOINT LeftHip
 {
  OFFSET 7.771700 -0.012900 -0.001300
  CHANNELS 3 Yrotation Xrotation Zrotation
  JOINT LeftKnee
  {
   OFFSET 0.000000 -40.869800 0.001200
   CHANNELS 3 Yrotation Xrotation Zrotation
   JOINT LeftAnkle
   {
    OFFSET 0.000000 -39.717900 0.002100
    CHANNELS 3 Yrotation Xrotation Zrotation
    JOINT LeftToe
    {
     OFFSET 0.000000 -4.965400 11.033500
     CHANNELS 3 Yrotation Xrotation Zrotation
     End Site
     {
      OFFSET 0.000000 -1.423100 5.872300
     }
    }
   }
  }
 }
}
MOTION
Frames: 8
Frame Time: 0.008333
-289.230379 60.262426 -86.656829 155.992133 -27.563224 3.527519 5.123983 20.679674 2.352327 0.595758 2.749374 0.229365 0.978408 4.483491 0.389257 4.137159 17.664307 2.042713 3.154919 13.668293 -1.894106 3.771951 -11.310887 -2.726559 1.751407 4.587968 -5.844931 -23.178355 -13.894427 -3.457281 -83.995151 -67.607943 74.096635 -8.030155 -13.253587 -31.015628 -7.495610 1.011796 -1.744521 40.512678 -8.258577 -0.953079 82.664083 -49.507499 -90.626720 2.831881 -13.859661 17.551230 0.027460 -42.306760 6.123240 -27.104011 68.621893 -25.208345 1.903439 -3.252030 -3.197521 0.030404 -0.275530 -0.030195 16.215045 -41.511814 0.651474 28.488700 64.842026 27.982148 -15.610938 -13.202422 2.216309 0.149188 0.272183 0.031199
-289.226278 60.265821 -86.651318 155.975384 -27.560456 3.511505 5.113689 20.703366 2.352142 0.598781 2.751717 0.230889 0.991073 4.475277 0.392619 4.155001 17.655444 2.049483 3.026027 13.564621 -1.901971 3.632073 -11.426083 -2.704615 1.719843 4.615200 -5.831331 -23.557364 -13.659050 -3.324547 -86.006111 -68.180822 76.178078 -7.884389 -13.213282 -30.885310 -7.434930 1.081590 -1.773456 40.799181 -8.140145 -1.072135 82.659368 -48.459342 -91.285812 3.008423 -14.036063 17.739202 -0.015113 -42.298544 6.159485 -27.050015 68.612471 -25.150550 1.921291 -3.244572 -3.218269 0.027298 -0.275556 -0.025468 16.218006 -41.517559 0.660986 28.523938 64.820612 28.039100 -15.578556 -13.191182 2.199935 0.097172 0.276831 0.029303
-289.228360 60.268382 -86.646722 155.977534 -27.554868 3.514825 5.099327 20.704303 2.338994 0.601286 2.754571 0.232076 0.987447 4.491502 0.393766 4.167350 17.633790 2.049325 2.900375 13.476508 -1.911540 3.489250 -11.535917 -2.688313 1.707821 4.624362 -5.825679 -23.938231 -13.403441 -3.169421 -88.202957 -68.844492 78.418509 -7.729461 -13.181641 -30.762059 -7.404970 1.121779 -1.787086 41.072681 -7.982708 -1.226981 82.671790 -47.437419 -91.958924 3.194557 -14.218367 17.919850 -0.042086 -42.294025 6.147789 -27.016134 68.601954 -25.097950 1.933409 -3.244411 -3.246454 0.044009 -0.270063 -0.019161 16.235006 -41.523554 0.639379 28.507623 64.813896 28.049763 -15.655004 -13.168143 2.201951 0.105448 0.272517 0.027290
-289.228611 60.270277 -86.641268 155.973825 -27.554488 3.500596 5.101984 20.706948 2.350060 0.604139 2.758840 0.233915 0.990589 4.494538 0.395551 4.178703 17.639246 2.056943 2.768502 13.388576 -1.929753 3.344908 -11.636395 -2.679043 1.652564 4.644849 -5.789183 -24.273468 -13.203049 -3.021095 -90.610199 -69.558334 80.844751 -7.577242 -13.157053 -30.646971 -7.343305 1.221570 -1.819245 41.263507 -7.888231 -1.463039 82.704621 -46.470230 -92.640952 3.376652 -14.401881 18.085643 -0.073065 -42.286182 6.156051 -26.997207 68.590857 -25.044228 1.936663 -3.238732 -3.283639 0.064217 -0.269598 -0.011159 16.236471 -41.531304 0.648170 28.495166 64.809350 28.060897 -15.693069 -13.152923 2.192060 0.114175 0.271819 0.032879
-289.226089 60.272844 -86.637389 155.954893 -27.576316 3.474135 5.129041 20.726498 2.386121 0.606985 2.763493 0.236309 0.990423 4.494215 0.396201 4.220850 17.681243 2.094068 2.606270 13.284860 -1.971420 3.200273 -11.719636 -2.675435 1.553496 4.625519 -5.735152 -24.587765 -13.033602 -2.891992 -93.226826 -70.282472 83.474025 -7.428281 -13.135426 -30.546842 -7.311878 1.291930 -1.860852 41.406547 -7.791700 -1.751850 82.773494 -45.586957 -93.332023 3.538892 -14.569245 18.243283 -0.102195 -42.252769 6.184466 -26.937032 68.584462 -24.958739 1.947114 -3.232183 -3.282519 0.059863 -0.268856 -0.030363 16.220294 -41.519870 0.697083 28.494208 64.800955 28.075216 -15.696096 -13.145005 2.173223 0.109616 0.273940 0.040438
-289.225940 60.274601 -86.633615 155.943515 -27.599133 3.449869 5.149032 20.738001 2.416624 0.609648 2.767609 0.239064 0.994291 4.512981 0.401876 4.236246 17.676932 2.110393 2.466004 13.228765 -2.002501 3.057251 -11.779715 -2.674355 1.494364 4.621653 -5.667266 -24.929071 -12.870555 -2.749855 -96.054675 -70.985159 86.325501 -7.281431 -13.113619 -30.465571 -7.277062 1.372509 -1.882297 41.508737 -7.666369 -2.081033 82.887352 -44.810296 -94.020344 3.680131 -14.714203 18.385693 -0.129467 -42.219528 6.194634 -26.861146 68.582322 -24.845489 1.960213 -3.226787 -3.308213 0.058079 -0.266415 -0.030060 16.215999 -41.509618 0.726888 28.512205 64.800357 28.107717 -15.672132 -13.145379 2.166408 0.117872 0.275892 0.046700
-289.229587 60.275583 -86.630225 155.934286 -27.620880 3.439340 5.161947 20.737721 2.431310 0.612201 2.770782 0.242116 0.998040 4.533028 0.405529 4.252808 17.666862 2.131466 2.327687 13.197328 -2.033264 2.916411 -11.814177 -2.673394 1.444878 4.624611 -5.591201 -25.288759 -12.726787 -2.595986 -99.108001 -71.631153 89.425165 -7.139402 -13.088374 -30.405379 -7.244663 1.458407 -1.897674 41.551735 -7.530515 -2.452737 83.046137 -44.153055 -94.690792 3.799269 -14.833376 18.493508 -0.136503 -42.183480 6.159091 -26.743615 68.584538 -24.668910 1.984273 -3.235036 -3.350208 0.051730 -0.248954 -0.024818 16.226090 -41.497691 0.735955 28.536092 64.802819 28.148078 -15.685099 -13.147703 2.162508 0.121978 0.277342 0.052458
-289.229650 60.278348 -86.629754 155.919463 -27.676558 3.412578 5.185437 20.756884 2.469232 0.613474 2.792371 0.245420 1.002875 4.532612 0.411120 4.264863 17.664315 2.146449 2.199426 13.178535 -2.056621 2.775392 -11.822775 -2.670800 1.412827 4.631299 -5.523658 -25.667938 -12.595352 -2.413807 -102.371224 -72.177409 92.767892 -7.005290 -13.063439 -30.360272 -7.209165 1.538051 -1.905692 41.535213 -7.386596 -2.857821 83.251301 -43.618299 -95.343801 3.887730 -14.918485 18.564408 -0.156110 -42.123270 6.193853 -26.724847 68.580378 -24.629840 1.972442 -3.217981 -3.356746 0.067852 -0.260690 -0.021831 16.240935 -41.462455 0.763742 28.544846 64.811800 28.195623 -15.696926 -13.145393 2.161617 0.093014 0.267760 0.047402
